# xmcd
#
# Track frame offsets:
#	150
#	13292
#	29580
#	48467
#	65187
#	81177
#	94052
#	107872
#	120540
#	133697
#	156017
#
# Disc length: 2344 seconds
#
# Revision: 1
# Processed by: cddbd v1.5.1PL0 Copyright (c) Steve Scherf et al.
# Submitted via: audiograbber 1.83.01
#
DISCID=9909260b
DTITLE=Little Milton - I Need Your Love So Bad 
DYEAR=1991
DGENRE=Blues
TTITLE0=Catch The Plane
TTITLE1=You Ought To Be Here With Me
TTITLE2=I Need Your Love So Bad
TTITLE3=I Wake Up Crying
TTITLE4=The Cost Of Living
TTITLE5=Welcome To The Club
TTITLE6=Man's Temptation
TTITLE7=Bellieve In Me
TTITLE8=Without My Sweet Baby
TTITLE9=Don't Leave Her
TTITLE10=Street Girl
EXTD=Japanese Import
EXTT0=
EXTT1=
EXTT2=
EXTT3=
EXTT4=
EXTT5=
EXTT6=
EXTT7=
EXTT8=
EXTT9=
EXTT10=
PLAYORDER=
